<?xml version="1.0" encoding="UTF-8"?>
<!DOCTYPE svg PUBLIC "-//W3C//DTD SVG 1.1//EN" "http://www.w3.org/Graphics/SVG/1.1/DTD/svg11.dtd">
<svg xmlns="http://www.w3.org/2000/svg" version="1.1" width="512px" height="512px" style="shape-rendering:geometricPrecision; text-rendering:geometricPrecision; image-rendering:optimizeQuality; fill-rule:evenodd; clip-rule:evenodd" xmlns:xlink="http://www.w3.org/1999/xlink">
<g><path style="opacity:0.994" fill="#57b3fd" d="M 383.5,386.5 C 379.406,382.583 375.072,378.75 370.5,375C 358.021,368.386 344.688,365.553 330.5,366.5C 327.833,365.167 325.167,365.167 322.5,366.5C 316.196,367.26 309.863,367.593 303.5,367.5C 303.806,370.385 303.473,373.052 302.5,375.5C 302.5,372.833 302.5,370.167 302.5,367.5C 296.833,367.5 291.167,367.5 285.5,367.5C 285.5,365.167 285.5,362.833 285.5,360.5C 285.5,355.5 285.5,350.5 285.5,345.5C 339.442,329.385 370.275,293.385 378,237.5C 380.01,183.333 357.51,143.167 310.5,117C 263.65,96.1528 219.65,100.819 178.5,131C 139.241,165.113 125.407,207.613 137,258.5C 148.265,297.263 172.431,324.597 209.5,340.5C 211.368,341.263 213.035,342.263 214.5,343.5C 214.5,351.167 214.5,358.833 214.5,366.5C 208.31,366.177 202.31,366.51 196.5,367.5C 178.83,367.333 161.164,367.5 143.5,368C 134.261,370.951 125.927,375.451 118.5,381.5C 110.536,373.035 102.369,364.702 94,356.5C 88.9661,348.162 88.2994,339.496 92,330.5C 96.4186,323.328 101.085,316.328 106,309.5C 112.898,294.678 110.065,282.178 97.5,272C 85.6835,268.046 73.6835,264.712 61.5,262C 53.6721,258.173 48.8388,252.006 47,243.5C 46.0664,228.445 46.3998,213.445 48,198.5C 51.3262,190.507 57.1595,185.341 65.5,183C 75.2263,181.591 84.5596,178.924 93.5,175C 100.164,168.844 104.664,161.344 107,152.5C 107.667,148.5 107.667,144.5 107,140.5C 102.097,131.259 96.7637,122.259 91,113.5C 88.4447,105.053 89.4447,97.0527 94,89.5C 102.469,80.0297 111.303,70.863 120.5,62C 130.833,56 141.167,56 151.5,62C 157.08,66.9569 163.413,70.6236 170.5,73C 176.693,73.9842 182.693,73.3175 188.5,71C 196.017,69.3255 202.184,65.4922 207,59.5C 210.421,50.4037 213.088,41.0704 215,31.5C 218.655,23.1782 224.822,17.6782 233.5,15C 248.167,14.3333 262.833,14.3333 277.5,15C 285.111,16.946 290.611,21.446 294,28.5C 296.175,35.3721 297.841,42.3721 299,49.5C 300.538,55.4116 303.705,60.245 308.5,64C 318.059,69.963 328.393,72.6297 339.5,72C 346.307,68.7625 352.64,64.7625 358.5,60C 369.058,53.7791 379.391,54.1125 389.5,61C 398.364,69.5298 406.864,78.3631 415,87.5C 419.204,94.5973 420.537,102.264 419,110.5C 415.763,117.307 411.763,123.64 407,129.5C 403.741,134.349 401.908,139.682 401.5,145.5C 402.681,156.236 407.015,165.403 414.5,173C 416.5,174 418.5,175 420.5,176C 431.072,178.246 441.405,181.246 451.5,185C 456.774,188.274 460.608,192.774 463,198.5C 464.6,213.445 464.934,228.445 464,243.5C 462.161,252.006 457.328,258.173 449.5,262C 437.689,264.495 426.023,267.495 414.5,271C 403.722,279.387 399.888,290.221 403,303.5C 407.751,311.337 412.751,319.004 418,326.5C 424,336.167 424,345.833 418,355.5C 409.5,364 401,372.5 392.5,381C 389.737,383.374 386.737,385.208 383.5,386.5 Z"/></g>
<g><path style="opacity:1" fill="#fdfdfe" d="M 285.5,345.5 C 285.5,344.5 285.5,343.5 285.5,342.5C 308.254,325.635 317.921,302.968 314.5,274.5C 315.338,274.842 315.672,275.508 315.5,276.5C 315.5,280.167 315.5,283.833 315.5,287.5C 317.415,287.784 319.081,287.451 320.5,286.5C 329.066,285.102 334.232,280.102 336,271.5C 336.667,267.833 336.667,264.167 336,260.5C 334.339,256.508 332.173,252.842 329.5,249.5C 331.304,236.254 331.971,222.92 331.5,209.5C 344.773,210.041 351.106,203.707 350.5,190.5C 351.074,181.568 347.074,175.735 338.5,173C 334.469,172.519 330.469,171.853 326.5,171C 335.557,165.718 339.391,157.885 338,147.5C 332.909,139.463 325.576,135.797 316,136.5C 313.167,136.667 310.333,136.833 307.5,137C 302.126,139.236 296.626,141.069 291,142.5C 276.088,140.929 261.255,141.429 246.5,144C 231.847,146.324 219.513,152.824 209.5,163.5C 180.381,160.614 166.381,173.947 167.5,203.5C 167.972,218.475 170.306,233.142 174.5,247.5C 164.696,253.462 161.196,262.129 164,273.5C 166.926,281.263 172.426,285.93 180.5,287.5C 181.5,287.5 182.5,287.5 183.5,287.5C 184.104,302.146 188.604,315.48 197,327.5C 201.37,331.702 205.537,336.036 209.5,340.5C 172.431,324.597 148.265,297.263 137,258.5C 125.407,207.613 139.241,165.113 178.5,131C 219.65,100.819 263.65,96.1528 310.5,117C 357.51,143.167 380.01,183.333 378,237.5C 370.275,293.385 339.442,329.385 285.5,345.5 Z"/></g>
<g><path style="opacity:1" fill="#1e2a43" d="M 329.5,249.5 C 327.296,257.102 324.296,264.435 320.5,271.5C 318.605,272.973 316.939,274.64 315.5,276.5C 315.672,275.508 315.338,274.842 314.5,274.5C 310.537,257.723 308.204,240.723 307.5,223.5C 294.043,225.603 283.71,220.936 276.5,209.5C 264.27,225.414 248.936,229.581 230.5,222C 224.469,217.981 218.802,213.481 213.5,208.5C 209.558,210.938 206.058,213.938 203,217.5C 193.068,233.797 187.234,251.464 185.5,270.5C 184.778,270.918 184.278,271.584 184,272.5C 182.787,270.075 181.621,267.741 180.5,265.5C 178.673,259.353 176.673,253.353 174.5,247.5C 170.306,233.142 167.972,218.475 167.5,203.5C 166.381,173.947 180.381,160.614 209.5,163.5C 219.513,152.824 231.847,146.324 246.5,144C 261.255,141.429 276.088,140.929 291,142.5C 296.626,141.069 302.126,139.236 307.5,137C 310.333,136.833 313.167,136.667 316,136.5C 325.576,135.797 332.909,139.463 338,147.5C 339.391,157.885 335.557,165.718 326.5,171C 330.469,171.853 334.469,172.519 338.5,173C 347.074,175.735 351.074,181.568 350.5,190.5C 351.106,203.707 344.773,210.041 331.5,209.5C 331.971,222.92 331.304,236.254 329.5,249.5 Z"/></g>
<g><path style="opacity:1" fill="#e8e9eb" d="M 315.5,142.5 C 326.106,140.933 331.272,145.599 331,156.5C 328.162,149.158 322.995,144.491 315.5,142.5 Z"/></g>
<g><path style="opacity:1" fill="#f8bcaa" d="M 314.5,274.5 C 317.921,302.968 308.254,325.635 285.5,342.5C 262.302,356.632 238.969,356.965 215.5,343.5C 215.167,343.5 214.833,343.5 214.5,343.5C 213.035,342.263 211.368,341.263 209.5,340.5C 205.537,336.036 201.37,331.702 197,327.5C 188.604,315.48 184.104,302.146 183.5,287.5C 184.365,281.996 185.032,276.329 185.5,270.5C 187.234,251.464 193.068,233.797 203,217.5C 206.058,213.938 209.558,210.938 213.5,208.5C 218.802,213.481 224.469,217.981 230.5,222C 248.936,229.581 264.27,225.414 276.5,209.5C 283.71,220.936 294.043,225.603 307.5,223.5C 308.204,240.723 310.537,257.723 314.5,274.5 Z"/></g>
<g><path style="opacity:1" fill="#262e47" d="M 203.5,247.5 C 213.506,247.334 223.506,247.5 233.5,248C 234.833,249.667 234.833,251.333 233.5,253C 223.5,253.667 213.5,253.667 203.5,253C 202.248,251.172 202.248,249.339 203.5,247.5 Z"/></g>
<g><path style="opacity:1" fill="#262e47" d="M 264.5,247.5 C 274.506,247.334 284.506,247.5 294.5,248C 295.833,249.667 295.833,251.333 294.5,253C 284.5,253.667 274.5,253.667 264.5,253C 263.248,251.172 263.248,249.339 264.5,247.5 Z"/></g>
<g><path style="opacity:1" fill="#f8bbaa" d="M 174.5,247.5 C 176.673,253.353 178.673,259.353 180.5,265.5C 180.5,272.833 180.5,280.167 180.5,287.5C 172.426,285.93 166.926,281.263 164,273.5C 161.196,262.129 164.696,253.462 174.5,247.5 Z"/></g>
<g><path style="opacity:1" fill="#f7bcaa" d="M 329.5,249.5 C 332.173,252.842 334.339,256.508 336,260.5C 336.667,264.167 336.667,267.833 336,271.5C 334.232,280.102 329.066,285.102 320.5,286.5C 320.5,281.5 320.5,276.5 320.5,271.5C 324.296,264.435 327.296,257.102 329.5,249.5 Z"/></g>
<g><path style="opacity:1" fill="#242d46" d="M 214.5,260.5 C 220.723,259.271 224.723,261.605 226.5,267.5C 224.969,274.044 220.969,276.211 214.5,274C 210.541,269.501 210.541,265.001 214.5,260.5 Z"/></g>
<g><path style="opacity:1" fill="#222c45" d="M 275.5,260.5 C 282.669,259.513 286.169,262.513 286,269.5C 282.797,274.916 278.464,275.916 273,272.5C 270.523,267.669 271.356,263.669 275.5,260.5 Z"/></g>
<g><path style="opacity:1" fill="#df877f" d="M 180.5,265.5 C 181.621,267.741 182.787,270.075 184,272.5C 184.278,271.584 184.778,270.918 185.5,270.5C 185.032,276.329 184.365,281.996 183.5,287.5C 182.5,287.5 181.5,287.5 180.5,287.5C 180.5,280.167 180.5,272.833 180.5,265.5 Z"/></g>
<g><path style="opacity:1" fill="#e88e85" d="M 320.5,271.5 C 320.5,276.5 320.5,281.5 320.5,286.5C 319.081,287.451 317.415,287.784 315.5,287.5C 315.5,283.833 315.5,280.167 315.5,276.5C 316.939,274.64 318.605,272.973 320.5,271.5 Z"/></g>
<g><path style="opacity:1" fill="#ea8c82" d="M 240.5,291.5 C 246.013,290.184 251.68,290.184 257.5,291.5C 254.331,296.118 249.998,297.618 244.5,296C 242.93,294.603 241.596,293.103 240.5,291.5 Z"/></g>
<g><path style="opacity:1" fill="#fefcfb" d="M 229.5,311.5 C 242.504,311.333 255.504,311.5 268.5,312C 269.598,318.796 266.932,323.796 260.5,327C 245.809,333.307 234.809,329.473 227.5,315.5C 227.752,313.927 228.418,312.594 229.5,311.5 Z"/></g>
<g><path style="opacity:1" fill="#ea8d83" d="M 285.5,342.5 C 285.5,343.5 285.5,344.5 285.5,345.5C 285.5,350.5 285.5,355.5 285.5,360.5C 267.033,362.033 249.033,359.866 231.5,354C 226.013,351.423 220.679,348.59 215.5,345.5C 215.5,344.833 215.5,344.167 215.5,343.5C 238.969,356.965 262.302,356.632 285.5,342.5 Z"/></g>
<g><path style="opacity:1" fill="#fabdab" d="M 215.5,345.5 C 220.679,348.59 226.013,351.423 231.5,354C 249.033,359.866 267.033,362.033 285.5,360.5C 285.5,362.833 285.5,365.167 285.5,367.5C 281.767,392.054 267.434,403.221 242.5,401C 229,396.833 220.167,388 216,374.5C 215.5,364.839 215.334,355.172 215.5,345.5 Z"/></g>
<g><path style="opacity:0.997" fill="#f24b58" d="M 322.5,366.5 C 325.167,366.5 327.833,366.5 330.5,366.5C 344.688,365.553 358.021,368.386 370.5,375C 375.072,378.75 379.406,382.583 383.5,386.5C 386.501,392.175 388.668,398.175 390,404.5C 390.667,421.167 390.667,437.833 390,454.5C 387.398,461.113 383.232,466.613 377.5,471C 362.163,480.662 345.496,486.995 327.5,490C 275.168,500 222.835,500 170.5,490C 152.1,486.649 135.1,479.983 119.5,470C 113.689,465.859 109.856,460.359 108,453.5C 107.07,435.789 107.404,418.122 109,400.5C 111.126,393.582 114.292,387.249 118.5,381.5C 125.927,375.451 134.261,370.951 143.5,368C 161.164,367.5 178.83,367.333 196.5,367.5C 198.686,395.861 213.686,413.361 241.5,420C 268.863,422.406 288.363,411.239 300,386.5C 301.31,382.93 302.143,379.263 302.5,375.5C 303.473,373.052 303.806,370.385 303.5,367.5C 309.863,367.593 316.196,367.26 322.5,366.5 Z"/></g>
<g><path style="opacity:1" fill="#fbfbfd" d="M 214.5,343.5 C 214.833,343.5 215.167,343.5 215.5,343.5C 215.5,344.167 215.5,344.833 215.5,345.5C 215.334,355.172 215.5,364.839 216,374.5C 220.167,388 229,396.833 242.5,401C 267.434,403.221 281.767,392.054 285.5,367.5C 291.167,367.5 296.833,367.5 302.5,367.5C 302.5,370.167 302.5,372.833 302.5,375.5C 302.143,379.263 301.31,382.93 300,386.5C 288.363,411.239 268.863,422.406 241.5,420C 213.686,413.361 198.686,395.861 196.5,367.5C 202.31,366.51 208.31,366.177 214.5,366.5C 214.5,358.833 214.5,351.167 214.5,343.5 Z"/></g>
<g><path style="opacity:1" fill="#fff3f4" d="M 129.5,450.5 C 135.649,455.08 142.316,458.913 149.5,462C 165.555,468.463 181.889,474.13 198.5,479C 176.902,480.017 157.236,474.351 139.5,462C 135.571,458.612 132.238,454.778 129.5,450.5 Z"/></g>
</svg>
